<?xml version="1.0" encoding="UTF-8"?>
<svg id="Layer_1" data-name="Layer 1" xmlns="http://www.w3.org/2000/svg" version="1.1" viewBox="0 0 595.28 517.64">
  <defs>
    <style>
      .cls-1 {
        fill: #81c3ea;
        stroke-width: 0px;
      }
    </style>
  </defs>
  <path class="cls-1" d="M97.29,247.63c13.97,0,27.07-3.79,38.34-10.37v8.19h38V97.96h-38v7.35c-11.28-6.58-24.37-10.37-38.34-10.37-42.1,0-76.34,34.25-76.34,76.34s34.25,76.34,76.34,76.34ZM97.29,132.94c21.14,0,38.34,17.2,38.34,38.34s-17.2,38.34-38.34,38.34-38.34-17.2-38.34-38.34,17.2-38.34,38.34-38.34Z"/>
  <path class="cls-1" d="M495.14,247.63c13.97,0,27.07-3.79,38.34-10.37v8.19h38V97.96h-38v7.35c-11.28-6.58-24.37-10.37-38.34-10.37-42.1,0-76.34,34.25-76.34,76.34s34.25,76.34,76.34,76.34ZM495.14,132.94c21.14,0,38.34,17.2,38.34,38.34s-17.2,38.34-38.34,38.34-38.34-17.2-38.34-38.34,17.2-38.34,38.34-38.34Z"/>
  <circle class="cls-1" cx="210.4" cy="230.09" r="17.04" transform="translate(-101.07 216.17) rotate(-45)"/>
  <circle class="cls-1" cx="399.57" cy="230.09" r="17.04" transform="translate(-42.18 97.96) rotate(-13.28)"/>
  <polygon class="cls-1" points="284.5 181.36 324.56 246.4 369.19 246.4 322.9 171.25 368.47 96.69 323.93 96.69 284.5 161.21 284.5 21.84 246.5 21.84 246.5 245.45 284.5 245.45 284.5 181.36"/>
  <polygon class="cls-1" points="23.81 312.52 23.81 314.83 23.81 368.37 23.81 400.37 23.81 490.36 55.81 490.36 55.81 400.37 92.8 400.37 92.8 368.37 55.81 368.37 55.81 314.83 109.16 314.83 109.16 282.83 23.81 282.83 23.81 312.52"/>
  <path class="cls-1" d="M172.11,280.83c-27.27,0-49.46,22.18-49.47,49.44h0v114.18h.03c.53,26.82,22.5,48.48,49.45,48.48s48.99-21.73,49.45-48.62h.02v-115h-.03c-.53-26.82-22.5-48.48-49.45-48.48ZM189.58,345.36v98.11c0,9.64-7.84,17.48-17.48,17.48s-17.48-7.84-17.48-17.48v-113.16c0-9.64,7.84-17.48,17.48-17.48s17.48,7.84,17.48,17.48v15.05Z"/>
  <path class="cls-1" d="M290.65,280.4c-27.27,0-49.46,22.18-49.47,49.44h0v114.18h.03c.53,26.82,22.5,48.48,49.45,48.48s48.99-21.73,49.45-48.62h.02v-115h-.03c-.53-26.82-22.5-48.48-49.45-48.48ZM308.12,344.93v98.11c0,9.64-7.84,17.48-17.48,17.48s-17.48-7.84-17.48-17.48v-113.16c0-9.64,7.84-17.48,17.48-17.48s17.48,7.84,17.48,17.48v15.05Z"/>
  <path class="cls-1" d="M410.14,283.69h-50.26v206.62h32v-.18h18.26c29.08,0,47.08-23.78,47.08-45.82v-113.87c0-26.66-20.24-46.77-47.08-46.77ZM425.22,444.32c0,5.79-5.24,13.82-15.08,13.82h-18.26v-142.45h18.26c14.36,0,15.08,12.3,15.08,14.77v113.87Z"/>
  <path class="cls-1" d="M530.09,368.74c-23.35-12.54-24.92-24.34-24.56-38.46.11-4.42.79-7.84,2.15-10.44,1.5-2.42,3.73-4.34,6.4-5.46,1.37-.49,2.9-.85,4.65-1.05.26-.01.51-.04.77-.04h6.1c4.96,0,9.3,2.58,11.75,6.44.56,1.01.87,1.98.99,2.43.74,2.93,1.28,7.04,1.25,12.8l-.08,14.17,32,.18.08-14.17c.11-18.93-4.33-32.67-13.58-41.99-11.9-11.99-27.38-12.03-34.82-12.04h-.15c-29.77,0-48.74,18.52-49.5,48.36-.53,20.77,3.69,47.21,41.41,67.47,25.15,13.51,24.93,25.26,24.62,41.52-.03,1.79-.07,3.55-.07,5.29,0,14.15-6.5,16.99-16.99,16.99-8.36,0-11.67-3.3-13.44-5.79-2.8-3.95-3.55-8.89-3.55-11.2v-29.18h-32v29.18c0,10.27,3.53,21.38,9.46,29.72,8.82,12.42,22.86,19.27,39.53,19.27,30.22,0,48.99-18.77,48.99-48.99,0-1.54.03-3.1.06-4.69.35-18.94.89-47.55-41.48-70.3Z"/>
</svg>